<svg width="18" height="20" viewBox="0 0 18 20" fill="none" xmlns="http://www.w3.org/2000/svg">
<path d="M15.1154 4.00894C14.0381 3.30651 13.2605 2.18262 13.018 0.872464C12.9656 0.589395 12.9368 0.298072 12.9368 0H9.49836L9.49285 13.78C9.43504 15.3231 8.165 16.5616 6.60804 16.5616C6.12413 16.5616 5.66848 16.4406 5.26729 16.2295C4.3473 15.7454 3.71771 14.781 3.71771 13.6713C3.71771 12.0775 5.01437 10.7808 6.60804 10.7808C6.90553 10.7808 7.19092 10.8299 7.46087 10.9145V7.40424C7.1815 7.3662 6.89765 7.34242 6.60804 7.34242C3.11829 7.34242 0.279297 10.1816 0.279297 13.6713C0.279297 15.8124 1.34905 17.7072 2.98108 18.853C4.00906 19.5747 5.25948 20 6.60804 20C10.0978 20 12.9368 17.161 12.9368 13.6713V6.68367C14.2854 7.65161 15.9376 8.222 17.7205 8.222V4.7836C16.7601 4.7836 15.8656 4.49808 15.1154 4.00894Z" fill="black"/>
</svg>
